<svg width="331" height="156" viewBox="0 0 331 156" fill="none" xmlns="http://www.w3.org/2000/svg">
<g filter="url(#filter0_d_135_22)">
<rect x="34" y="30" width="263" height="88" rx="10" fill="white"/>
</g>
<circle cx="80" cy="74" r="24" fill="url(#paint0_linear_135_22)"/>
<rect x="107" y="50" width="10" height="48" rx="2" fill="url(#paint1_linear_135_22)"/>
<path d="M148.483 73.8182C148.483 76.0388 148.062 77.928 147.22 79.4858C146.385 81.0436 145.245 82.2334 143.8 83.0554C142.361 83.8707 140.744 84.2784 138.947 84.2784C137.138 84.2784 135.514 83.8674 134.075 83.0455C132.637 82.2235 131.5 81.0336 130.665 79.4759C129.83 77.9181 129.412 76.0322 129.412 73.8182C129.412 71.5975 129.83 69.7083 130.665 68.1506C131.5 66.5928 132.637 65.4062 134.075 64.5909C135.514 63.7689 137.138 63.358 138.947 63.358C140.744 63.358 142.361 63.7689 143.8 64.5909C145.245 65.4062 146.385 66.5928 147.22 68.1506C148.062 69.7083 148.483 71.5975 148.483 73.8182ZM144.118 73.8182C144.118 72.3797 143.902 71.1667 143.472 70.179C143.047 69.1913 142.447 68.4422 141.672 67.9318C140.896 67.4214 139.988 67.1662 138.947 67.1662C137.907 67.1662 136.999 67.4214 136.223 67.9318C135.447 68.4422 134.844 69.1913 134.413 70.179C133.989 71.1667 133.777 72.3797 133.777 73.8182C133.777 75.2566 133.989 76.4697 134.413 77.4574C134.844 78.4451 135.447 79.1941 136.223 79.7045C136.999 80.215 137.907 80.4702 138.947 80.4702C139.988 80.4702 140.896 80.215 141.672 79.7045C142.447 79.1941 143.047 78.4451 143.472 77.4574C143.902 76.4697 144.118 75.2566 144.118 73.8182ZM155.828 75.1705V84H151.593V68.7273H155.63V71.4219H155.809C156.147 70.5336 156.713 69.831 157.509 69.3139C158.304 68.7902 159.269 68.5284 160.402 68.5284C161.463 68.5284 162.388 68.7604 163.176 69.2244C163.965 69.6884 164.578 70.3513 165.016 71.2131C165.453 72.0682 165.672 73.089 165.672 74.2756V84H161.436V75.0312C161.443 74.0966 161.204 73.3674 160.721 72.8438C160.237 72.3134 159.57 72.0483 158.722 72.0483C158.152 72.0483 157.648 72.1709 157.211 72.4162C156.78 72.6615 156.442 73.0194 156.196 73.4901C155.958 73.9541 155.835 74.5142 155.828 75.1705ZM175.971 84.2983C174.4 84.2983 173.048 83.9801 171.914 83.3438C170.787 82.7008 169.919 81.7926 169.309 80.6193C168.699 79.4394 168.394 78.044 168.394 76.4332C168.394 74.8622 168.699 73.4834 169.309 72.2969C169.919 71.1103 170.777 70.1856 171.884 69.5227C172.998 68.8598 174.304 68.5284 175.802 68.5284C176.809 68.5284 177.747 68.6908 178.616 69.0156C179.491 69.3338 180.253 69.8144 180.903 70.4574C181.559 71.1004 182.069 71.9091 182.434 72.8835C182.799 73.8513 182.981 74.9848 182.981 76.2841V77.4474H170.085V74.8224H178.994C178.994 74.2126 178.861 73.6723 178.596 73.2017C178.331 72.7311 177.963 72.3632 177.492 72.098C177.028 71.8262 176.488 71.6903 175.871 71.6903C175.228 71.6903 174.658 71.8395 174.161 72.1378C173.671 72.4295 173.286 72.8239 173.008 73.321C172.729 73.8116 172.587 74.3584 172.58 74.9616V77.4574C172.58 78.2131 172.719 78.866 172.998 79.4162C173.283 79.9664 173.684 80.3906 174.201 80.6889C174.718 80.9872 175.331 81.1364 176.04 81.1364C176.511 81.1364 176.942 81.0701 177.333 80.9375C177.724 80.8049 178.059 80.6061 178.337 80.3409C178.616 80.0758 178.828 79.7509 178.974 79.3665L182.891 79.625C182.692 80.5663 182.285 81.3883 181.668 82.0909C181.058 82.7869 180.27 83.3305 179.302 83.7216C178.341 84.1061 177.23 84.2983 175.971 84.2983ZM190.13 63.6364V84H185.825V63.6364H190.13ZM197.828 75.1705V84H193.593V68.7273H197.63V71.4219H197.809C198.147 70.5336 198.713 69.831 199.509 69.3139C200.304 68.7902 201.269 68.5284 202.402 68.5284C203.463 68.5284 204.388 68.7604 205.176 69.2244C205.965 69.6884 206.578 70.3513 207.016 71.2131C207.453 72.0682 207.672 73.089 207.672 74.2756V84H203.436V75.0312C203.443 74.0966 203.204 73.3674 202.721 72.8438C202.237 72.3134 201.57 72.0483 200.722 72.0483C200.152 72.0483 199.648 72.1709 199.211 72.4162C198.78 72.6615 198.442 73.0194 198.196 73.4901C197.958 73.9541 197.835 74.5142 197.828 75.1705ZM219.224 68.7273V71.9091H209.798V68.7273H219.224ZM211.955 84V67.6236C211.955 66.5166 212.171 65.5985 212.602 64.8693C213.039 64.1402 213.636 63.5933 214.391 63.2287C215.147 62.8641 216.005 62.6818 216.967 62.6818C217.616 62.6818 218.21 62.7315 218.746 62.831C219.29 62.9304 219.694 63.0199 219.96 63.0994L219.204 66.2812C219.038 66.2282 218.833 66.1785 218.587 66.1321C218.349 66.0857 218.103 66.0625 217.852 66.0625C217.228 66.0625 216.794 66.2083 216.549 66.5C216.304 66.785 216.181 67.1861 216.181 67.7031V84H211.955ZM228.165 84.2983C226.621 84.2983 225.285 83.9702 224.158 83.3139C223.038 82.651 222.173 81.7296 221.563 80.5497C220.953 79.3632 220.648 77.9877 220.648 76.4233C220.648 74.8456 220.953 73.4669 221.563 72.2869C222.173 71.1004 223.038 70.179 224.158 69.5227C225.285 68.8598 226.621 68.5284 228.165 68.5284C229.71 68.5284 231.042 68.8598 232.162 69.5227C233.289 70.179 234.158 71.1004 234.767 72.2869C235.377 73.4669 235.682 74.8456 235.682 76.4233C235.682 77.9877 235.377 79.3632 234.767 80.5497C234.158 81.7296 233.289 82.651 232.162 83.3139C231.042 83.9702 229.71 84.2983 228.165 84.2983ZM228.185 81.017C228.888 81.017 229.474 80.8182 229.945 80.4205C230.416 80.0161 230.77 79.4659 231.009 78.7699C231.254 78.0739 231.377 77.2817 231.377 76.3935C231.377 75.5052 231.254 74.7131 231.009 74.017C230.77 73.321 230.416 72.7708 229.945 72.3665C229.474 71.9621 228.888 71.7599 228.185 71.7599C227.476 71.7599 226.879 71.9621 226.395 72.3665C225.918 72.7708 225.557 73.321 225.311 74.017C225.073 74.7131 224.953 75.5052 224.953 76.3935C224.953 77.2817 225.073 78.0739 225.311 78.7699C225.557 79.4659 225.918 80.0161 226.395 80.4205C226.879 80.8182 227.476 81.017 228.185 81.017ZM240.912 84.2585C240.256 84.2585 239.693 84.0265 239.222 83.5625C238.758 83.0919 238.526 82.5284 238.526 81.8722C238.526 81.2225 238.758 80.6657 239.222 80.2017C239.693 79.7377 240.256 79.5057 240.912 79.5057C241.549 79.5057 242.105 79.7377 242.583 80.2017C243.06 80.6657 243.299 81.2225 243.299 81.8722C243.299 82.3097 243.186 82.7107 242.961 83.0753C242.742 83.4332 242.453 83.7216 242.096 83.9403C241.738 84.1525 241.343 84.2585 240.912 84.2585ZM251.131 84.2884C250.157 84.2884 249.289 84.1193 248.526 83.7812C247.764 83.4366 247.161 82.9295 246.717 82.2599C246.279 81.5838 246.06 80.742 246.06 79.7344C246.06 78.8859 246.216 78.1733 246.528 77.5966C246.839 77.0199 247.263 76.5559 247.8 76.2045C248.337 75.8532 248.947 75.5881 249.63 75.4091C250.319 75.2301 251.042 75.1042 251.798 75.0312C252.686 74.9384 253.402 74.8523 253.945 74.7727C254.489 74.6866 254.883 74.5606 255.129 74.3949C255.374 74.2292 255.496 73.9839 255.496 73.6591V73.5994C255.496 72.9697 255.298 72.4825 254.9 72.1378C254.509 71.7931 253.952 71.6207 253.229 71.6207C252.467 71.6207 251.861 71.7898 251.41 72.1278C250.959 72.4593 250.661 72.8769 250.515 73.3807L246.597 73.0625C246.796 72.1345 247.187 71.3324 247.771 70.6562C248.354 69.9735 249.106 69.4498 250.028 69.0852C250.956 68.714 252.03 68.5284 253.249 68.5284C254.098 68.5284 254.91 68.6278 255.685 68.8267C256.468 69.0256 257.16 69.3338 257.763 69.7514C258.373 70.169 258.854 70.706 259.205 71.3622C259.557 72.0118 259.732 72.7907 259.732 73.6989V84H255.715V81.8821H255.596C255.351 82.3594 255.022 82.7803 254.612 83.1449C254.201 83.5028 253.707 83.7846 253.13 83.9901C252.553 84.1889 251.887 84.2884 251.131 84.2884ZM252.344 81.3651C252.968 81.3651 253.518 81.2424 253.995 80.9972C254.472 80.7453 254.847 80.4072 255.119 79.983C255.39 79.5587 255.526 79.0781 255.526 78.5412V76.9205C255.394 77.0066 255.211 77.0862 254.979 77.1591C254.754 77.2254 254.499 77.2884 254.214 77.348C253.929 77.401 253.644 77.4508 253.359 77.4972C253.074 77.5369 252.815 77.5734 252.583 77.6065C252.086 77.6795 251.652 77.7955 251.281 77.9545C250.909 78.1136 250.621 78.3291 250.415 78.6009C250.21 78.866 250.107 79.1974 250.107 79.5952C250.107 80.1719 250.316 80.6127 250.734 80.9176C251.158 81.2159 251.695 81.3651 252.344 81.3651ZM263.018 84V68.7273H267.254V84H263.018ZM265.146 66.7585C264.517 66.7585 263.976 66.5497 263.526 66.1321C263.081 65.7079 262.859 65.2008 262.859 64.6108C262.859 64.0275 263.081 63.527 263.526 63.1094C263.976 62.6851 264.517 62.473 265.146 62.473C265.776 62.473 266.313 62.6851 266.757 63.1094C267.208 63.527 267.433 64.0275 267.433 64.6108C267.433 65.2008 267.208 65.7079 266.757 66.1321C266.313 66.5497 265.776 66.7585 265.146 66.7585Z" fill="#242424"/>
<defs>
<filter id="filter0_d_135_22" x="0" y="0" width="331" height="156" filterUnits="userSpaceOnUse" color-interpolation-filters="sRGB">
<feFlood flood-opacity="0" result="BackgroundImageFix"/>
<feColorMatrix in="SourceAlpha" type="matrix" values="0 0 0 0 0 0 0 0 0 0 0 0 0 0 0 0 0 0 127 0" result="hardAlpha"/>
<feOffset dy="4"/>
<feGaussianBlur stdDeviation="17"/>
<feComposite in2="hardAlpha" operator="out"/>
<feColorMatrix type="matrix" values="0 0 0 0 0 0 0 0 0 0 0 0 0 0 0 0 0 0 0.25 0"/>
<feBlend mode="normal" in2="BackgroundImageFix" result="effect1_dropShadow_135_22"/>
<feBlend mode="normal" in="SourceGraphic" in2="effect1_dropShadow_135_22" result="shape"/>
</filter>
<linearGradient id="paint0_linear_135_22" x1="56" y1="74" x2="104" y2="74" gradientUnits="userSpaceOnUse">
<stop stop-color="#6D98E9"/>
<stop offset="0.783654" stop-color="#D499D9"/>
<stop offset="0.985577" stop-color="#E9CFAB"/>
</linearGradient>
<linearGradient id="paint1_linear_135_22" x1="112" y1="50" x2="112" y2="96.5" gradientUnits="userSpaceOnUse">
<stop stop-color="#6D98E9"/>
<stop offset="0.783654" stop-color="#D499D9"/>
<stop offset="0.985577" stop-color="#E9CFAB"/>
</linearGradient>
</defs>
</svg>
